<svg xmlns="http://www.w3.org/2000/svg" viewBox="0 0 100 100" width="512" height="512">
  <g transform="translate(22 24) scale(0.58)">
    <rect x="18" y="84" width="48" height="4" rx="2" fill="#6c63a8"/>
    <polygon points="28,64 8,57 28,77" fill="#f3c34e"/>
    <ellipse cx="46" cy="66" rx="24" ry="18" fill="#f3c34e"/>
    <circle cx="64" cy="51" r="14" fill="#f3c34e"/>
    <path d="M36 62 Q48 56 60 64 Q48 70 36 62 Z" fill="#e4933b" opacity="0.55"/>
    <polygon points="75,47 89,42 76,54" fill="#e4933b"/>
    <rect x="44" y="83" width="3" height="6" fill="#e4933b"/>
    <rect x="54" y="83" width="3" height="6" fill="#e4933b"/>
    <circle cx="67" cy="49" r="2.4" fill="#2e2a63"/>
    <g fill="#e4572e"><ellipse cx="80" cy="35" rx="4.4" ry="3.2" transform="rotate(-20 80 35)"/><rect x="83.2" y="23" width="1.8" height="12"/></g>
    <g fill="#f4b400"><ellipse cx="88" cy="27" rx="4.4" ry="3.2" transform="rotate(-20 88 27)"/><rect x="91.2" y="15" width="1.8" height="12"/></g>
    <g fill="#56a3d9"><ellipse cx="94" cy="16" rx="4.4" ry="3.2" transform="rotate(-20 94 16)"/><rect x="97.2" y="6" width="1.8" height="10"/></g>
  </g>
</svg>
